# xmcd CD database file
#
# Track frame offsets:
#	183
#	51940
#	94240
#	135068
#	174715
#	217640
#
# Disc length: 3590 seconds
#
# Revision: 2
# Processed by: cddbd v1.5.2PL0 Copyright (c) Steve Scherf et al.
# Submitted via: CDex 1.96
#
DISCID=460e0406
DTITLE=Enigma Of Faith - Esoteric
DYEAR=1900
DGENRE=New Age
TTITLE0=Works Of Charity
TTITLE1=Love And Faith
TTITLE2=Faith Is Bliss
TTITLE3=Faith Healing
TTITLE4=Faith Move Mountains
TTITLE5=Preach Charity
EXTD=
EXTT0=
EXTT1=
EXTT2=
EXTT3=
EXTT4=
EXTT5=
PLAYORDER=
